<mxfile host="app.diagrams.net" agent="Mozilla/5.0 (Windows NT 10.0; Win64; x64) AppleWebKit/537.36 (KHTML, like Gecko) Chrome/135.0.0.0 Safari/537.36" version="26.3.0">
  <diagram name="Page-1" id="03018318-947c-dd8e-b7a3-06fadd420f32">
    <mxGraphModel dx="1871" dy="1256" grid="1" gridSize="10" guides="1" tooltips="1" connect="1" arrows="1" fold="1" page="1" pageScale="1" pageWidth="1100" pageHeight="850" background="none" math="0" shadow="0">
      <root>
        <mxCell id="0" />
        <mxCell id="1" parent="0" />
        <mxCell id="RI8SOfBb8gHB-J_0Ki0e-2" value="" style="rounded=0;whiteSpace=wrap;html=1;strokeColor=none;" vertex="1" parent="1">
          <mxGeometry width="1100" height="850" as="geometry" />
        </mxCell>
        <mxCell id="RI8SOfBb8gHB-J_0Ki0e-10" value="" style="rounded=0;whiteSpace=wrap;html=1;fillColor=#f5f5f5;fontColor=#333333;strokeColor=none;glass=0;shadow=0;" vertex="1" parent="1">
          <mxGeometry x="870" y="80" width="230" height="770" as="geometry" />
        </mxCell>
        <mxCell id="RI8SOfBb8gHB-J_0Ki0e-19" value="&lt;b&gt;Twoje zakłady&lt;/b&gt;" style="rounded=0;whiteSpace=wrap;html=1;fillColor=none;fontColor=#333333;strokeColor=none;fontSize=21;" vertex="1" parent="1">
          <mxGeometry x="870" y="90" width="230" height="60" as="geometry" />
        </mxCell>
        <mxCell id="RI8SOfBb8gHB-J_0Ki0e-4" value="" style="rounded=0;whiteSpace=wrap;html=1;fillColor=#f5f5f5;fontColor=#333333;strokeColor=none;glass=0;shadow=0;" vertex="1" parent="1">
          <mxGeometry y="80" width="180" height="770" as="geometry" />
        </mxCell>
        <mxCell id="RI8SOfBb8gHB-J_0Ki0e-3" value="" style="rounded=0;whiteSpace=wrap;html=1;fillColor=#f5f5f5;fontColor=#333333;strokeColor=none;comic=0;shadow=1;imageAspect=1;shadowOffsetX=0;shadowOffsetY=5;shadowOpacity=25;shadowBlur=3;treeFolding=0;shadowColor=light-dark(#000000,#A4A4A4);" vertex="1" parent="1">
          <mxGeometry width="1100" height="90" as="geometry" />
        </mxCell>
        <mxCell id="677b7b8949515195-2" value="LOGO" style="whiteSpace=wrap;html=1;rounded=0;shadow=0;labelBackgroundColor=none;strokeWidth=1;fontFamily=Verdana;fontSize=28;align=center;comic=0;fillColor=#f5f5f5;strokeColor=light-dark(#666666,#202020);gradientColor=#b3b3b3;" parent="1" vertex="1">
          <mxGeometry x="20" y="10" width="80" height="70" as="geometry" />
        </mxCell>
        <mxCell id="677b7b8949515195-3" value="Search" style="strokeWidth=1;shadow=0;dashed=0;align=center;html=1;shape=mxgraph.mockup.forms.searchBox;strokeColor=light-dark(#000000,#444444);mainText=;strokeColor2=light-dark(#008CFF,#FBFDFB);fontColor=#666666;fontSize=17;align=left;spacingLeft=3;rounded=0;labelBackgroundColor=none;comic=1;" parent="1" vertex="1">
          <mxGeometry x="10" y="100" width="160" height="30" as="geometry" />
        </mxCell>
        <mxCell id="677b7b8949515195-11" value="&lt;p&gt;&lt;font&gt;&lt;b&gt;Sporty&lt;/b&gt;&lt;/font&gt;&lt;/p&gt;" style="text;html=1;points=[];align=center;verticalAlign=top;spacingTop=-4;fontSize=20;fontFamily=Verdana;" parent="1" vertex="1">
          <mxGeometry x="380" y="10" width="90" height="50" as="geometry" />
        </mxCell>
        <mxCell id="677b7b8949515195-27" value="Section 1" style="text;html=1;points=[];align=left;verticalAlign=top;spacingTop=-4;fontSize=14;fontFamily=Verdana" parent="1" vertex="1">
          <mxGeometry x="30" y="250" width="170" height="20" as="geometry" />
        </mxCell>
        <mxCell id="677b7b8949515195-28" value="Section 2" style="text;html=1;points=[];align=left;verticalAlign=top;spacingTop=-4;fontSize=14;fontFamily=Verdana" parent="1" vertex="1">
          <mxGeometry x="40" y="286" width="170" height="20" as="geometry" />
        </mxCell>
        <mxCell id="677b7b8949515195-29" value="Section 3" style="text;html=1;points=[];align=left;verticalAlign=top;spacingTop=-4;fontSize=14;fontFamily=Verdana" parent="1" vertex="1">
          <mxGeometry x="40" y="321" width="170" height="20" as="geometry" />
        </mxCell>
        <mxCell id="677b7b8949515195-30" value="Section 4" style="text;html=1;points=[];align=left;verticalAlign=top;spacingTop=-4;fontSize=14;fontFamily=Verdana" parent="1" vertex="1">
          <mxGeometry x="40" y="357" width="170" height="20" as="geometry" />
        </mxCell>
        <mxCell id="677b7b8949515195-31" value="Section 7" style="text;html=1;points=[];align=left;verticalAlign=top;spacingTop=-4;fontSize=14;fontFamily=Verdana" parent="1" vertex="1">
          <mxGeometry x="40" y="464" width="170" height="20" as="geometry" />
        </mxCell>
        <mxCell id="677b7b8949515195-32" value="Section 8" style="text;html=1;points=[];align=left;verticalAlign=top;spacingTop=-4;fontSize=14;fontFamily=Verdana" parent="1" vertex="1">
          <mxGeometry x="40" y="500" width="170" height="20" as="geometry" />
        </mxCell>
        <mxCell id="677b7b8949515195-33" value="Section 9" style="text;html=1;points=[];align=left;verticalAlign=top;spacingTop=-4;fontSize=14;fontFamily=Verdana" parent="1" vertex="1">
          <mxGeometry x="40" y="536" width="170" height="20" as="geometry" />
        </mxCell>
        <mxCell id="677b7b8949515195-34" value="Section 10" style="text;html=1;points=[];align=left;verticalAlign=top;spacingTop=-4;fontSize=14;fontFamily=Verdana" parent="1" vertex="1">
          <mxGeometry x="40" y="571" width="170" height="20" as="geometry" />
        </mxCell>
        <mxCell id="677b7b8949515195-35" value="Section 11" style="text;html=1;points=[];align=left;verticalAlign=top;spacingTop=-4;fontSize=14;fontFamily=Verdana" parent="1" vertex="1">
          <mxGeometry x="40" y="607" width="170" height="20" as="geometry" />
        </mxCell>
        <mxCell id="677b7b8949515195-36" value="Section 12" style="text;html=1;points=[];align=left;verticalAlign=top;spacingTop=-4;fontSize=14;fontFamily=Verdana" parent="1" vertex="1">
          <mxGeometry x="40" y="643" width="170" height="20" as="geometry" />
        </mxCell>
        <mxCell id="677b7b8949515195-37" value="Section 13" style="text;html=1;points=[];align=left;verticalAlign=top;spacingTop=-4;fontSize=14;fontFamily=Verdana" parent="1" vertex="1">
          <mxGeometry x="40" y="679" width="170" height="20" as="geometry" />
        </mxCell>
        <mxCell id="677b7b8949515195-38" value="Section 14" style="text;html=1;points=[];align=left;verticalAlign=top;spacingTop=-4;fontSize=14;fontFamily=Verdana" parent="1" vertex="1">
          <mxGeometry x="40" y="714" width="170" height="20" as="geometry" />
        </mxCell>
        <mxCell id="677b7b8949515195-39" value="Section 5" style="text;html=1;points=[];align=left;verticalAlign=top;spacingTop=-4;fontSize=14;fontFamily=Verdana" parent="1" vertex="1">
          <mxGeometry x="40" y="393" width="170" height="20" as="geometry" />
        </mxCell>
        <mxCell id="677b7b8949515195-40" value="Section 6" style="text;html=1;points=[];align=left;verticalAlign=top;spacingTop=-4;fontSize=14;fontFamily=Verdana" parent="1" vertex="1">
          <mxGeometry x="40" y="429" width="170" height="20" as="geometry" />
        </mxCell>
        <mxCell id="677b7b8949515195-41" value="Section 15" style="text;html=1;points=[];align=left;verticalAlign=top;spacingTop=-4;fontSize=14;fontFamily=Verdana" parent="1" vertex="1">
          <mxGeometry x="40" y="750" width="170" height="20" as="geometry" />
        </mxCell>
        <mxCell id="RI8SOfBb8gHB-J_0Ki0e-5" value="&lt;p&gt;&lt;font&gt;&lt;b&gt;E-sport&lt;/b&gt;&lt;/font&gt;&lt;/p&gt;" style="text;html=1;points=[];align=center;verticalAlign=top;spacingTop=-4;fontSize=20;fontFamily=Verdana;" vertex="1" parent="1">
          <mxGeometry x="488" y="10" width="90" height="50" as="geometry" />
        </mxCell>
        <mxCell id="RI8SOfBb8gHB-J_0Ki0e-6" value="&lt;p&gt;&lt;font&gt;&lt;b&gt;Gry&lt;/b&gt;&lt;/font&gt;&lt;/p&gt;" style="text;html=1;points=[];align=center;verticalAlign=top;spacingTop=-4;fontSize=20;fontFamily=Verdana;" vertex="1" parent="1">
          <mxGeometry x="587" y="10" width="98" height="50" as="geometry" />
        </mxCell>
        <mxCell id="RI8SOfBb8gHB-J_0Ki0e-8" value="&lt;b&gt;Zaloguj się&lt;/b&gt;" style="rounded=1;whiteSpace=wrap;html=1;fillColor=light-dark(#F5F5F5,#282828);fontColor=#333333;strokeColor=none;fontSize=16;" vertex="1" parent="1">
          <mxGeometry x="840" y="20" width="120" height="50" as="geometry" />
        </mxCell>
        <mxCell id="RI8SOfBb8gHB-J_0Ki0e-9" value="&lt;b&gt;&lt;font style=&quot;color: light-dark(rgb(0, 0, 0), rgb(6, 6, 6));&quot;&gt;Zarejestruj się&lt;/font&gt;&lt;/b&gt;" style="rounded=1;whiteSpace=wrap;html=1;fillColor=light-dark(#F5F5F5,#AAAAAA);fontColor=#333333;strokeColor=none;fontSize=16;" vertex="1" parent="1">
          <mxGeometry x="970" y="20" width="120" height="50" as="geometry" />
        </mxCell>
        <mxCell id="RI8SOfBb8gHB-J_0Ki0e-14" value="&lt;b&gt;&lt;font style=&quot;color: light-dark(rgb(0, 0, 0), rgb(6, 6, 6));&quot;&gt;Obstaw&lt;/font&gt;&lt;/b&gt;" style="rounded=1;whiteSpace=wrap;html=1;fillColor=light-dark(#F5F5F5,#AAAAAA);fontColor=#333333;strokeColor=none;fontSize=16;" vertex="1" parent="1">
          <mxGeometry x="880" y="780" width="210" height="50" as="geometry" />
        </mxCell>
        <mxCell id="RI8SOfBb8gHB-J_0Ki0e-15" value="Potencjalna wygrana:" style="text;html=1;align=center;verticalAlign=middle;whiteSpace=wrap;rounded=0;fontSize=11;" vertex="1" parent="1">
          <mxGeometry x="890" y="750" width="120" height="20" as="geometry" />
        </mxCell>
        <mxCell id="RI8SOfBb8gHB-J_0Ki0e-16" value="0.00 PLN" style="text;html=1;align=center;verticalAlign=middle;whiteSpace=wrap;rounded=0;fontSize=11;" vertex="1" parent="1">
          <mxGeometry x="1020" y="750" width="60" height="20" as="geometry" />
        </mxCell>
        <mxCell id="RI8SOfBb8gHB-J_0Ki0e-20" value="&lt;b&gt;zakład1&lt;/b&gt;" style="rounded=1;whiteSpace=wrap;html=1;fillColor=light-dark(#F5F5F5,#282828);fontColor=#333333;strokeColor=none;fontSize=16;" vertex="1" parent="1">
          <mxGeometry x="880" y="190" width="210" height="76" as="geometry" />
        </mxCell>
        <mxCell id="RI8SOfBb8gHB-J_0Ki0e-21" value="&lt;b&gt;zakład2&lt;/b&gt;" style="rounded=1;whiteSpace=wrap;html=1;fillColor=light-dark(#F5F5F5,#282828);fontColor=#333333;strokeColor=none;fontSize=16;" vertex="1" parent="1">
          <mxGeometry x="880" y="275" width="210" height="76" as="geometry" />
        </mxCell>
        <mxCell id="RI8SOfBb8gHB-J_0Ki0e-22" value="&lt;b&gt;zakład3&lt;/b&gt;" style="rounded=1;whiteSpace=wrap;html=1;fillColor=light-dark(#F5F5F5,#282828);fontColor=#333333;strokeColor=none;fontSize=16;" vertex="1" parent="1">
          <mxGeometry x="880" y="365" width="210" height="76" as="geometry" />
        </mxCell>
      </root>
    </mxGraphModel>
  </diagram>
</mxfile>
